<svg width="16" height="16" viewBox="0 0 16 16" fill="none" xmlns="http://www.w3.org/2000/svg">
<path fill-rule="evenodd" clip-rule="evenodd" d="M8.72856 3.05957C8.21998 4.51875 8.32493 6.18026 9.15727 7.62207C9.98964 9.06377 11.3764 9.9852 12.8946 10.2744L13.6592 10.4199L13.209 11.0537C12.765 11.6802 12.1836 12.2264 11.4747 12.6357C8.84413 14.1543 5.48073 13.2525 3.96196 10.6221C2.44322 7.99153 3.34421 4.62822 5.97466 3.10938C6.6831 2.70035 7.44609 2.46787 8.21098 2.39648L8.9854 2.32324L8.72856 3.05957ZM7.5645 3.52441C7.19169 3.62381 6.82506 3.77232 6.47466 3.97461C4.32241 5.21721 3.58472 7.96978 4.82719 10.1221C6.0698 12.2743 8.82236 13.012 10.9747 11.7695C11.3252 11.5672 11.6367 11.3234 11.9092 11.0498C10.437 10.5711 9.12764 9.5693 8.29204 8.12207C7.45628 6.6745 7.24268 5.03929 7.5645 3.52441ZM15 6H14V5H15V6ZM13 5H12V4H13V5ZM12 4H11V3H12V4ZM14 4H13V3H14V4ZM12.9991 2L13 3H12V1.99902L12.9991 2Z" fill="#3B3B3B"/>
</svg>
