<svg width="16" height="16" viewBox="0 0 16 16" fill="none" xmlns="http://www.w3.org/2000/svg">
<g clip-path="url(#clip0_1_133)">
<path d="M10.1812 0.686096C11.5148 0.328756 12.8862 1.12011 13.2437 2.45367L15.314 10.1812C15.6713 11.5148 14.8799 12.8863 13.5464 13.2437L5.81885 15.314C4.48528 15.6714 3.11383 14.8799 2.75635 13.5464L0.686035 5.81891C0.3287 4.48531 1.12007 3.11385 2.45361 2.75641L10.1812 0.686096ZM12.2769 2.71246C12.0623 1.91251 11.24 1.43754 10.4399 1.65192L2.7124 3.72223C1.91233 3.93673 1.43746 4.75999 1.65186 5.56012L3.72217 13.2877C3.93671 14.0877 4.75996 14.5626 5.56006 14.3482L13.2876 12.2769C14.0875 12.0623 14.5625 11.24 14.3481 10.44L12.2769 2.71246ZM6.42627 8.99664C7.07825 8.82195 7.74859 9.20895 7.92334 9.8609C8.09805 10.5129 7.7111 11.1833 7.05908 11.358C6.4071 11.5326 5.73671 11.1457 5.56201 10.4937C5.38733 9.84177 5.77438 9.17143 6.42627 8.99664ZM9.86084 8.07672C10.5129 7.90201 11.1832 8.28897 11.3579 8.94098C11.5325 9.59292 11.1456 10.2634 10.4937 10.438C9.84176 10.6127 9.17142 10.2256 8.99658 9.57379C8.82189 8.92182 9.2089 8.25148 9.86084 8.07672ZM5.50635 5.56207C6.15826 5.38748 6.82865 5.77447 7.00342 6.42633C7.1781 7.07826 6.79103 7.74859 6.13916 7.9234C5.48715 8.09811 4.8168 7.71116 4.64209 7.05914C4.46744 6.40716 4.85436 5.73677 5.50635 5.56207ZM8.94092 4.64215C9.59286 4.46759 10.2633 4.85447 10.438 5.50641C10.6126 6.15827 10.2255 6.82866 9.57373 7.00348C8.9218 7.17816 8.25147 6.79108 8.07666 6.13922C7.90195 5.48721 8.2889 4.81686 8.94092 4.64215Z" fill="#3B3B3B"/>
</g>
<defs>
<clipPath id="clip0_1_133">
<rect width="16" height="16" fill="white"/>
</clipPath>
</defs>
</svg>
