<svg width="16" height="16" viewBox="0 0 16 16" fill="none" xmlns="http://www.w3.org/2000/svg">
<path d="M13.5 2.5H14.5V14.5H1.5V1.5H13.5V2.5ZM2.5 13.5H4.79297L11 7.29297L13.5 9.79297V3.5H12.5V2.5H2.5V13.5ZM6.20703 13.5H13.5V11.207L11 8.70703L6.20703 13.5ZM6.5 4.5C7.60457 4.5 8.5 5.39543 8.5 6.5C8.5 7.60457 7.60457 8.5 6.5 8.5C5.39543 8.5 4.5 7.60457 4.5 6.5C4.5 5.39543 5.39543 4.5 6.5 4.5ZM6.5 5.5C5.94772 5.5 5.5 5.94772 5.5 6.5C5.5 7.05228 5.94772 7.5 6.5 7.5C7.05228 7.5 7.5 7.05228 7.5 6.5C7.5 5.94772 7.05228 5.5 6.5 5.5Z" fill="#3B3B3B"/>
</svg>
