<svg width="16" height="16" viewBox="0 0 16 16" fill="none" xmlns="http://www.w3.org/2000/svg">
<g clip-path="url(#clip0_67_2967)">
<path d="M8.5 15.5H7.5V13.5H8.5V15.5ZM4.46484 12.2422L3.0498 13.6572L2.34277 12.9502L3.75781 11.5352L4.46484 12.2422ZM13.6572 12.9502L12.9502 13.6572L11.5352 12.2422L12.2422 11.5352L13.6572 12.9502ZM8 4.5C9.933 4.5 11.5 6.067 11.5 8C11.5 9.933 9.933 11.5 8 11.5C6.067 11.5 4.5 9.933 4.5 8C4.5 6.067 6.067 4.5 8 4.5ZM8 5.5C6.61929 5.5 5.5 6.61929 5.5 8C5.5 9.38071 6.61929 10.5 8 10.5C9.38071 10.5 10.5 9.38071 10.5 8C10.5 6.61929 9.38071 5.5 8 5.5ZM2.5 8.5H0.5V7.5H2.5V8.5ZM15.5 8.5H13.5V7.5H15.5V8.5ZM4.46484 3.75781L3.75781 4.46484L2.34277 3.0498L3.0498 2.34277L4.46484 3.75781ZM13.6572 3.0498L12.2422 4.46484L11.5352 3.75781L12.9502 2.34277L13.6572 3.0498ZM8.5 2.5H7.5V0.5H8.5V2.5Z" fill="#3B3B3B"/>
</g>
<defs>
<clipPath id="clip0_67_2967">
<rect width="16" height="16" fill="white"/>
</clipPath>
</defs>
</svg>
