<svg width="16" height="16" viewBox="0 0 16 16" fill="none" xmlns="http://www.w3.org/2000/svg">
<g clip-path="url(#clip0_2132_4595)">
<path d="M8.5 13.793L10 12.293L10.707 13L8 15.707L5.29297 13L6 12.293L7.5 13.793V9.5H8.5V13.793ZM3.70703 6L2.20703 7.5H6.5V8.5H2.20703L3.70703 10L3 10.707L0.292969 8L3 5.29297L3.70703 6ZM15.707 8L13 10.707L12.293 10L13.793 8.5H9.5V7.5H13.793L12.293 6L13 5.29297L15.707 8ZM10.707 3L10 3.70703L8.5 2.20703V6.5H7.5V2.20703L6 3.70703L5.29297 3L8 0.292969L10.707 3Z" fill="#3B3B3B"/>
</g>
<defs>
<clipPath id="clip0_2132_4595">
<rect width="16" height="16" fill="white"/>
</clipPath>
</defs>
</svg>
