<svg width="16" height="16" viewBox="0 0 16 16" fill="none" xmlns="http://www.w3.org/2000/svg">
<path d="M9 9L12 6L15 9" stroke="#3B3B3B" stroke-linecap="square"/>
<path d="M4 4V3.5H3.5V4H4ZM10 12V11.5H9.5V12H10ZM4 14H3.5V14.5H4V14ZM10 4.5H10.5V3.5H10V4V4.5ZM10 14V14.5H10.5V14H10ZM4 12H4.5V11.5H4V12ZM2 6V5.5H1.5V6H2ZM4 6V6.5H4.5V6H4ZM2 12H1.5V12.5H2V12ZM12 12V12.5H12.5V12H12ZM8 4V4.5H10V4V3.5H8V4ZM11 12V11.5H10V12V12.5H11V12ZM10 12H9.5V13H10H10.5V12H10ZM10 13H9.5V14H10H10.5V13H10ZM4 14H4.5V12H4H3.5V14H4ZM2 8H2.5V6H2H1.5V8H2ZM2 6V6.5H4V6V5.5H2V6ZM4 6H4.5V4H4H3.5V6H4ZM4 12V11.5H2V12V12.5H4V12ZM2 12H2.5V8H2H1.5V12H2ZM12 6H11.5V12H12H12.5V6H12ZM12 12V11.5H11V12V12.5H12V12ZM10 14V13.5H4V14V14.5H10V14ZM4 4V4.5H8V4V3.5H4V4Z" fill="#3B3B3B"/>
</svg>
