<svg width="16" height="16" viewBox="0 0 16 16" fill="none" xmlns="http://www.w3.org/2000/svg">
<g clip-path="url(#clip0_37_1967)">
<path d="M8 0.5C12.1421 0.5 15.5 3.85786 15.5 8C15.5 12.1421 12.1421 15.5 8 15.5C3.85786 15.5 0.5 12.1421 0.5 8C0.5 3.85786 3.85786 0.5 8 0.5ZM3.77148 12.9346C4.90831 13.9096 6.38483 14.5 8 14.5C11.5899 14.5 14.5 11.5899 14.5 8C14.5 6.38483 13.9096 4.90831 12.9346 3.77148L3.77148 12.9346ZM8 1.5C4.41015 1.5 1.5 4.41015 1.5 8C1.5 9.61468 2.08991 11.0908 3.06445 12.2275L12.2275 3.06445C11.0908 2.08991 9.61468 1.5 8 1.5Z" fill="#3B3B3B"/>
</g>
<defs>
<clipPath id="clip0_37_1967">
<rect width="16" height="16" fill="white"/>
</clipPath>
</defs>
</svg>
